<svg width="10" height="19" viewBox="0 0 10 19" xmlns="http://www.w3.org/2000/svg">
<path d="M9.61539 0H7.21154C4.51923 0 2.78846 1.82835 2.78846 4.6697V6.81925H0.384615C0.168269 6.81925 -2.86561e-09 6.9922 -2.86561e-09 7.21456V10.3277C-2.86561e-09 10.5501 0.168269 10.723 0.384615 10.723H2.78846V18.6047C2.78846 18.827 2.95673 19 3.17308 19H6.32212C6.53846 19 6.70673 18.827 6.70673 18.6047V10.723H9.51923C9.73558 10.723 9.90385 10.5501 9.90385 10.3277V7.21456C9.90385 7.11573 9.85577 7.0169 9.78365 6.94278C9.71154 6.86866 9.61539 6.81925 9.51923 6.81925H6.68269V4.9909C6.68269 4.10143 6.875 3.6567 8.00481 3.6567H9.61539C9.83173 3.6567 10 3.48375 10 3.26138V0.395319C9.97596 0.172952 9.80769 0 9.61539 0Z"/>
</svg>
