<svg width="19" height="19" viewBox="0 0 19 19" xmlns="http://www.w3.org/2000/svg">
<path d="M13.7581 0H5.24186C2.34689 0 0 2.34689 0 5.24186V13.7581C0 16.6531 2.34689 19 5.24186 19H13.7581C16.6531 19 19 16.6531 19 13.7581V5.24186C19 2.34689 16.6531 0 13.7581 0ZM17.3136 13.7581C17.3136 15.7256 15.7115 17.3136 13.7581 17.3136H5.24186C3.27441 17.3136 1.68639 15.7115 1.68639 13.7581V5.24186C1.68639 3.28846 3.28846 1.68639 5.24186 1.68639H13.7581C15.7256 1.68639 17.3136 3.28846 17.3136 5.24186V13.7581Z" />
<path d="M4.90459 -1.07218e-07C2.20636 -1.07218e-07 1.07218e-07 2.19231 1.07218e-07 4.89053C1.07218e-07 7.58876 2.19231 9.79512 4.90459 9.79512C7.60281 9.79512 9.80917 7.60281 9.80917 4.89053C9.80917 2.19231 7.60281 -1.07218e-07 4.90459 -1.07218e-07ZM4.90459 8.10873C3.13388 8.10873 1.68639 6.6753 1.68639 4.90459C1.70044 3.11982 3.13388 1.68639 4.90459 1.68639C6.6753 1.68639 8.12278 3.11982 8.12278 4.89053C8.12278 6.66124 6.6753 8.10873 4.90459 8.10873Z" transform="translate(4.59534 4.60938)" />
<path d="M1.23669 5.36089e-08C0.913462 5.36089e-08 0.590236 0.126479 0.365384 0.365385C0.140532 0.590237 -2.14436e-07 0.913461 -2.14436e-07 1.23669C-2.14436e-07 1.55991 0.126479 1.88314 0.365384 2.10799C0.590236 2.33284 0.913462 2.47337 1.23669 2.47337C1.55991 2.47337 1.88314 2.34689 2.10799 2.10799C2.33284 1.88314 2.47337 1.55991 2.47337 1.23669C2.47337 0.913461 2.34689 0.590237 2.10799 0.365385C1.88314 0.126479 1.57396 5.36089e-08 1.23669 5.36089e-08Z" transform="translate(13.3647 3.17603)" />
</svg>
