<svg width="19" height="18" viewBox="0 0 19 18" xmlns="http://www.w3.org/2000/svg">
<path d="M19 11.0365V18H14.925V11.5018C14.925 9.87044 14.3342 8.75365 12.8599 8.75365C11.7335 8.75365 11.0654 9.50365 10.7727 10.2318C10.6678 10.4891 10.6402 10.8504 10.6402 11.2172V18H6.56524C6.56524 18 6.62046 6.99635 6.56524 5.85219H10.6402V7.57117C10.6292 7.58212 10.6237 7.59854 10.6126 7.60949H10.6402V7.57117C11.1813 6.74453 12.1476 5.56204 14.3121 5.56204C16.9901 5.56752 19 7.30292 19 11.0365ZM2.30253 0C0.911072 0 0 0.908759 0 2.09672C0 3.26277 0.883464 4.1989 2.25283 4.1989H2.28044C3.69951 4.1989 4.58297 3.26277 4.58297 2.09672C4.55536 0.908759 3.69951 0 2.30253 0ZM0.242953 18H4.31241V5.85219H0.242953V18Z"/>
</svg>
