<svg width="25" height="17" viewBox="0 0 25 17" xmlns="http://www.w3.org/2000/svg">
<path d="M24.0125 1.46132C23.1157 0.428653 21.443 0 18.2688 0H6.72108C3.46634 0 1.77348 0.448138 0.876663 1.55874C0 2.63037 0 4.21834 0 6.41032V10.5897C0 14.8372 1.03789 17 6.72108 17H18.2688C21.0298 17 22.5514 16.6298 23.549 15.714C24.5667 14.7788 25 13.2395 25 10.5897V6.41032C24.9899 4.09169 24.9194 2.50372 24.0125 1.46132ZM16.0419 9.07966L10.8021 11.7295C10.6812 11.788 10.5603 11.8172 10.4293 11.8172C10.2882 11.8172 10.137 11.7782 10.0161 11.7003C9.77428 11.5542 9.62314 11.3106 9.62314 11.0378V5.75759C9.62314 5.48481 9.77428 5.23152 10.006 5.09513C10.2479 4.95874 10.5502 4.949 10.792 5.0659L16.0318 7.69628C16.2938 7.83266 16.4651 8.0957 16.4651 8.38797C16.4752 8.68023 16.314 8.94327 16.0419 9.07966Z"/>
</svg>
