<svg width="12" height="11" viewBox="0 0 12 11" xmlns="http://www.w3.org/2000/svg">
  <path d="M10.9453 1.28906H10.5938V0.966797C10.5938 0.432373 10.1191 0 9.53906 0C8.95605 0 8.48438 0.432373 8.48438 0.966797V1.28906H7.07812V0.966797C7.07812 0.432373 6.60352 0 6.02344 0C5.44043 0 4.96875 0.432373 4.96875 0.966797V1.28906H3.51562V0.966797C3.51562 0.432373 3.04395 0 2.46094 0C1.87793 0 1.40625 0.432373 1.40625 0.966797V1.28906H1.05469C0.47168 1.28906 0 1.72144 0 2.25586V10.0332C0 10.5649 0.47168 11 1.05469 11H10.9453C11.5254 11 12 10.5649 12 10.0332V2.25586C12 1.72144 11.5254 1.28906 10.9453 1.28906ZM9.1875 0.966797C9.1875 0.789551 9.3457 0.644531 9.53906 0.644531C9.73242 0.644531 9.89062 0.789551 9.89062 0.966797V2.25586C9.89062 2.43311 9.73242 2.57812 9.53906 2.57812C9.3457 2.57812 9.1875 2.43311 9.1875 2.25586V0.966797ZM5.67188 0.966797C5.67188 0.789551 5.83008 0.644531 6.02344 0.644531C6.2168 0.644531 6.375 0.789551 6.375 0.966797V2.25586C6.375 2.43311 6.2168 2.57812 6.02344 2.57812C5.83008 2.57812 5.67188 2.43311 5.67188 2.25586V0.966797ZM2.10938 0.966797C2.10938 0.789551 2.26758 0.644531 2.46094 0.644531C2.6543 0.644531 2.8125 0.789551 2.8125 0.966797V2.25586C2.8125 2.43311 2.6543 2.57812 2.46094 2.57812C2.26758 2.57812 2.10938 2.43311 2.10938 2.25586V0.966797ZM11.2969 10.0332C11.2969 10.2104 11.1387 10.3555 10.9453 10.3555H1.05469C0.861328 10.3555 0.703125 10.2104 0.703125 10.0332V4.55469H11.2969V10.0332ZM11.2969 3.91016H0.703125V2.25586C0.703125 2.07861 0.861328 1.93359 1.05469 1.93359H1.40625V2.25586C1.40625 2.79028 1.87793 3.22266 2.46094 3.22266C3.04395 3.22266 3.51562 2.79028 3.51562 2.25586V1.93359H4.96875V2.25586C4.96875 2.79028 5.44043 3.22266 6.02344 3.22266C6.60352 3.22266 7.07812 2.79028 7.07812 2.25586V1.93359H8.48438V2.25586C8.48438 2.79028 8.95605 3.22266 9.53906 3.22266C10.1191 3.22266 10.5938 2.79028 10.5938 2.25586V1.93359H10.9453C11.1387 1.93359 11.2969 2.07861 11.2969 2.25586V3.91016Z" />
  <path d="M8.83594 1.63913e-07H0.351562C0.158203 1.63913e-07 0 0.14502 0 0.322266V4.18945C0 4.3667 0.158203 4.51172 0.351562 4.51172H8.83594C9.0293 4.51172 9.1875 4.3667 9.1875 4.18945V0.322266C9.1875 0.14502 9.0293 1.63913e-07 8.83594 1.63913e-07ZM2.10938 3.86719H0.703125V2.57813H2.10938V3.86719ZM2.10938 1.93359H0.703125V0.644531H2.10938V1.93359ZM4.26562 3.86719H2.8125V2.57813H4.26562V3.86719ZM4.26562 1.93359H2.8125V0.644531H4.26562V1.93359ZM6.375 3.86719H4.96875V2.57813H6.375V3.86719ZM6.375 1.93359H4.96875V0.644531H6.375V1.93359ZM8.48438 3.86719H7.07812V2.57813H8.48438V3.86719ZM8.48438 1.93359H7.07812V0.644531H8.48438V1.93359Z" transform="translate(1.40625 5.19922)" />
</svg>
