<svg width="31" height="31" viewBox="0 0 31 31">
<path d="M15.5,31.1c-2.7,0-5.4-0.8-7.7-2.1c-0.5-0.3-0.6-0.9-0.4-1.4c0.3-0.5,0.9-0.6,1.4-0.4c2,1.2,4.4,1.8,6.7,1.8
	c7.5,0,13.6-6.1,13.6-13.6c0-1.4-0.2-2.9-0.7-4.4c-0.2-0.5,0.1-1.1,0.7-1.3c0.5-0.2,1.1,0.1,1.3,0.7c0.5,1.7,0.8,3.4,0.8,5
	C31.1,24.1,24.1,31.1,15.5,31.1z M5,26.6c-0.3,0-0.5-0.1-0.7-0.3c-2.8-2.9-4.3-6.6-4.3-10.7c0-8.6,7-15.6,15.6-15.6
	c4.9,0,9.4,2.2,12.4,6.1c0.3,0.4,0.3,1.1-0.2,1.4c-0.4,0.3-1.1,0.3-1.4-0.2c-2.7-3.4-6.6-5.3-10.9-5.3C8,1.9,1.9,8,1.9,15.5
	c0,3.6,1.3,6.8,3.8,9.4c0.4,0.4,0.4,1,0,1.4C5.5,26.5,5.2,26.6,5,26.6z M23.5,23.2c-0.2,0-0.4-0.1-0.6-0.2L17,18.2
	c-0.3,0.2-0.7,0.3-1.1,0.3c-1.3,0-2.4-1.1-2.4-2.4c0-1,0.6-1.9,1.5-2.2V8.1c0-0.6,0.4-1,1-1c0.6,0,1,0.4,1,1v5.8
	c0.8,0.4,1.3,1.2,1.3,2.1c0,0.2,0,0.4-0.1,0.5l5.9,4.8c0.4,0.3,0.5,1,0.1,1.4C24.1,23,23.8,23.2,23.5,23.2z"/>
</svg>
