<svg width="33" height="40" viewBox="0 0 33 40">
<path d="M5.3,28.2c-0.3,0-0.5-0.1-0.7-0.3c-3-3.1-4.6-7-4.6-11.4C0,7.4,7.4,0,16.5,0c5.2,0,10,2.4,13.2,6.5C30,6.9,30,7.5,29.5,7.9
	c-0.4,0.3-1.1,0.3-1.4-0.2C25.3,4.1,21,2,16.5,2C8.5,2,2,8.5,2,16.5c0,3.8,1.4,7.3,4,10c0.4,0.4,0.4,1,0,1.4
	C5.8,28.1,5.5,28.2,5.3,28.2z M20.3,35.1c0.4-1,1.1-2.7,1.4-2.9C28.5,30,33,23.7,33,16.5c0-1.7-0.3-3.5-0.8-5.3
	c-0.2-0.5-0.7-0.8-1.3-0.7c-0.5,0.2-0.8,0.7-0.7,1.3c0.5,1.6,0.8,3.2,0.8,4.7c0,6.3-4,11.8-9.9,13.8c-1.1,0.4-1.7,1.8-2.6,4.1
	c-0.4,1-1,2.6-1.5,3.1c-0.5-0.5-1.2-2.1-1.7-3.1c-1.1-2.4-1.8-3.8-2.9-4.1c-1-0.3-2-0.7-3-1.3c-0.5-0.3-1.1-0.1-1.4,0.3
	c-0.3,0.5-0.1,1.1,0.3,1.4c1.1,0.7,2.3,1.2,3.5,1.5c0.4,0.3,1.2,2,1.7,3c1.1,2.4,2.1,4.4,3.5,4.4C18.6,39.6,19.4,37.5,20.3,35.1z
	 M27,16.1c0-5.8-4.7-10.5-10.5-10.5C10.7,5.6,6,10.3,6,16.1s4.7,10.5,10.5,10.5C22.3,26.6,27,21.9,27,16.1z M25,16.1
	c0,4.7-3.8,8.5-8.5,8.5c-4.7,0-8.5-3.8-8.5-8.5s3.8-8.5,8.5-8.5C21.2,7.6,25,11.4,25,16.1z"/>
</svg>
